<svg width="22" height="16" viewBox="0 0 22 16" fill="none" xmlns="http://www.w3.org/2000/svg">
<path id="Union" fill-rule="evenodd" clip-rule="evenodd" d="M12.0095 3.63501C12.5224 3.27292 12.8574 2.67558 12.8574 2C12.8574 0.895431 11.962 0 10.8574 0C9.75283 0 8.8574 0.895431 8.8574 2C8.8574 2.69933 9.21633 3.31482 9.76001 3.67232C8.70111 5.34643 7.2574 7.81421 7.2574 8.82481C6.69423 7.46878 5.13858 6.58307 3.84084 6.05807C4.03268 5.75109 4.14355 5.38831 4.14355 4.99963C4.14355 3.89506 3.24812 2.99963 2.14355 2.99963C1.03899 2.99963 0.143555 3.89506 0.143555 4.99963C0.143555 6.1042 1.03899 6.99963 2.14355 6.99963C2.17006 6.99963 2.19644 6.99912 2.2227 6.9981L3.8574 13.999H17.8574L19.4992 6.96753C19.6154 6.98854 19.7351 6.99951 19.8574 6.99951C20.962 6.99951 21.8574 6.10408 21.8574 4.99951C21.8574 3.89494 20.962 2.99951 19.8574 2.99951C18.7528 2.99951 17.8574 3.89494 17.8574 4.99951C17.8574 5.35928 17.9524 5.69687 18.1187 5.98855C16.8322 6.50334 15.1941 7.407 14.5382 8.82481C14.5382 7.62206 13.0892 5.24176 12.0095 3.63501ZM3.92917 15.999C3.88165 15.6697 3.8574 15.3356 3.8574 14.999H10.8574H17.8574C17.8574 15.3356 17.8332 15.6697 17.7856 15.999H3.92917Z" fill="#3F9AF5"/>
</svg>
