<svg width="11" height="16" viewBox="0 0 11 16" fill="none" xmlns="http://www.w3.org/2000/svg">
<path id="Union 5" d="M10.1436 2.58338C10.1436 3.56798 7.91755 4.36598 5.17255 4.36598C2.42755 4.36598 0.201554 3.56798 0.201554 2.58338C0.201554 1.59878 2.42695 0.80078 5.17255 0.80078C7.91815 0.80078 10.1436 1.59878 10.1436 2.58338ZM10.0704 3.40958C10.1184 3.49885 10.1435 3.59862 10.1436 3.69998V6.61598C10.1436 7.46078 7.91335 8.15078 5.17255 8.15078C2.43175 8.15078 0.201554 7.46198 0.201554 6.61598V3.69998C0.201583 3.59893 0.226956 3.49949 0.275354 3.41078C0.695354 4.26398 2.75335 4.88258 5.17255 4.88258C7.59175 4.88258 9.65215 4.26338 10.0692 3.40958H10.0704ZM1.67935 6.14858C1.67285 6.08352 1.64761 6.02175 1.60668 5.97075C1.56576 5.91976 1.51092 5.88174 1.44881 5.8613C1.3867 5.84087 1.32 5.8389 1.25679 5.85563C1.19359 5.87236 1.13659 5.90707 1.09273 5.95556C1.04887 6.00404 1.02001 6.06422 1.00968 6.12878C0.999341 6.19334 1.00796 6.25951 1.0345 6.31927C1.06103 6.37903 1.10434 6.4298 1.15916 6.46543C1.21399 6.50105 1.27797 6.52001 1.34335 6.51998C1.43696 6.51486 1.52474 6.47295 1.58756 6.40337C1.65039 6.3338 1.68377 6.24222 1.67935 6.14858ZM10.0704 7.27178C10.1184 7.36105 10.1435 7.46082 10.1436 7.56218L10.1436 10.4782C10.1436 11.3242 7.91335 12.013 5.17255 12.013C2.43175 12.013 0.201554 11.3242 0.201554 10.4782L0.201554 7.56218C0.201583 7.46113 0.226956 7.36169 0.275354 7.27298C0.695354 8.12618 2.75335 8.74478 5.17255 8.74478C7.59175 8.74478 9.65215 8.12498 10.0692 7.27178H10.0704ZM1.67875 10.0102C1.67225 9.94512 1.64701 9.88335 1.60608 9.83236C1.56516 9.78136 1.51032 9.74334 1.44821 9.72291C1.3861 9.70247 1.3194 9.7005 1.25619 9.71723C1.19299 9.73396 1.13599 9.76867 1.09213 9.81716C1.04826 9.86564 1.01941 9.92582 1.00908 9.99038C0.998741 10.0549 1.00736 10.1211 1.0339 10.1809C1.06043 10.2406 1.10374 10.2914 1.15856 10.327C1.21339 10.3627 1.27737 10.3816 1.34275 10.3816C1.43646 10.3766 1.5244 10.3348 1.58735 10.2652C1.65031 10.1956 1.68317 10.1039 1.67875 10.0102ZM10.0704 11.0608C10.1182 11.1497 10.1433 11.249 10.1436 11.35V14.266C10.1436 15.112 7.91335 15.8008 5.17255 15.8008C2.43175 15.8008 0.201554 15.112 0.201554 14.266V11.35C0.201402 11.2489 0.226787 11.1494 0.275354 11.0608C0.695354 11.914 2.75335 12.5326 5.17255 12.5326C7.59175 12.5326 9.65215 11.9134 10.0692 11.0608H10.0704ZM1.67875 13.7986C1.68363 13.7515 1.67857 13.704 1.66391 13.659C1.64924 13.6141 1.6253 13.5727 1.59363 13.5375C1.56195 13.5024 1.52325 13.4743 1.48004 13.4551C1.43682 13.4359 1.39005 13.426 1.34275 13.426C1.29546 13.426 1.24869 13.4359 1.20547 13.4551C1.16225 13.4743 1.12356 13.5024 1.09188 13.5375C1.06021 13.5727 1.03626 13.6141 1.0216 13.659C1.00694 13.704 1.00188 13.7515 1.00675 13.7986C1.00188 13.8456 1.00694 13.8932 1.0216 13.9381C1.03626 13.9831 1.06021 14.0245 1.09188 14.0596C1.12356 14.0947 1.16225 14.1228 1.20547 14.1421C1.24869 14.1613 1.29546 14.1712 1.34275 14.1712C1.39005 14.1712 1.43682 14.1613 1.48004 14.1421C1.52325 14.1228 1.56195 14.0947 1.59363 14.0596C1.6253 14.0245 1.64924 13.9831 1.66391 13.9381C1.67857 13.8932 1.68363 13.8456 1.67875 13.7986Z" fill="#3F9AF5"/>
</svg>
