<svg width="14" height="20" viewBox="0 0 19 23" fill="none" xmlns="http://www.w3.org/2000/svg">
<path d="M13.8584 2.77719C13.8584 4.08999 10.8904 5.15399 7.2304 5.15399C3.5704 5.15399 0.602399 4.08999 0.602399 2.77719C0.602399 1.46439 3.5696 0.400391 7.2304 0.400391C10.8912 0.400391 13.8584 1.46439 13.8584 2.77719ZM13.7608 3.87879C13.8248 3.99782 13.8583 4.13085 13.8584 4.26599V8.15399C13.8584 9.28039 10.8848 10.2004 7.2304 10.2004C3.576 10.2004 0.602399 9.28199 0.602399 8.15399V4.26599C0.602436 4.13125 0.636268 3.99867 0.700798 3.88039C1.2608 5.01799 4.0048 5.84279 7.2304 5.84279C10.456 5.84279 13.2032 5.01719 13.7592 3.87879H13.7608ZM2.5728 7.53079C2.56413 7.44405 2.53047 7.36168 2.4759 7.29369C2.42134 7.2257 2.34822 7.175 2.26541 7.14776C2.1826 7.12051 2.09366 7.11788 2.00938 7.14019C1.92511 7.16249 1.84912 7.20878 1.79063 7.27343C1.73215 7.33807 1.69368 7.41831 1.6799 7.50439C1.66611 7.59047 1.67761 7.6787 1.71299 7.75838C1.74837 7.83805 1.80611 7.90575 1.87921 7.95325C1.95231 8.00075 2.03762 8.02602 2.1248 8.02599C2.2496 8.01916 2.36664 7.96328 2.45041 7.87051C2.53418 7.77775 2.57868 7.65564 2.5728 7.53079ZM13.7608 9.02839C13.8248 9.14742 13.8583 9.28045 13.8584 9.41559L13.8584 13.3036C13.8584 14.4316 10.8848 15.35 7.2304 15.35C3.576 15.35 0.602399 14.4316 0.602399 13.3036L0.602399 9.41559C0.602436 9.28085 0.636268 9.14827 0.700798 9.02999C1.2608 10.1676 4.0048 10.9924 7.2304 10.9924C10.456 10.9924 13.2032 10.166 13.7592 9.02839H13.7608ZM2.572 12.6796C2.56333 12.5928 2.52967 12.5105 2.4751 12.4425C2.42054 12.3745 2.34742 12.3238 2.26461 12.2966C2.1818 12.2693 2.09286 12.2667 2.00858 12.289C1.92431 12.3113 1.84832 12.3576 1.78983 12.4222C1.73135 12.4869 1.69288 12.5671 1.6791 12.6532C1.66531 12.7393 1.67681 12.8275 1.71219 12.9072C1.74757 12.9869 1.80531 13.0545 1.87841 13.1021C1.95151 13.1496 2.03682 13.1748 2.124 13.1748C2.24894 13.1682 2.36619 13.1124 2.45013 13.0196C2.53407 12.9268 2.57788 12.8046 2.572 12.6796ZM13.7608 14.0804C13.8245 14.1989 13.8581 14.3314 13.8584 14.466L13.8584 18.354C13.8584 19.482 10.8848 20.4004 7.2304 20.4004C3.576 20.4004 0.602399 19.482 0.602399 18.354V14.466C0.602196 14.3312 0.636042 14.1986 0.700798 14.0804C1.2608 15.218 4.0048 16.0428 7.2304 16.0428C10.456 16.0428 13.2032 15.2172 13.7592 14.0804H13.7608ZM2.572 17.7308C2.5785 17.6681 2.57176 17.6047 2.5522 17.5447C2.53265 17.4848 2.50073 17.4296 2.45849 17.3827C2.41626 17.3359 2.36467 17.2985 2.30704 17.2728C2.24942 17.2472 2.18706 17.234 2.124 17.234C2.06093 17.234 1.99857 17.2472 1.94095 17.2728C1.88333 17.2985 1.83173 17.3359 1.7895 17.3827C1.74727 17.4296 1.71535 17.4848 1.69579 17.5447C1.67624 17.6047 1.6695 17.6681 1.676 17.7308C1.6695 17.7935 1.67624 17.8569 1.69579 17.9169C1.71535 17.9768 1.74727 18.032 1.7895 18.0788C1.83173 18.1257 1.88333 18.1631 1.94095 18.1888C1.99857 18.2144 2.06093 18.2276 2.124 18.2276C2.18706 18.2276 2.24942 18.2144 2.30704 18.1888C2.36467 18.1631 2.41626 18.1257 2.45849 18.0788C2.50073 18.032 2.53265 17.9768 2.5522 17.9169C2.57176 17.8569 2.5785 17.7935 2.572 17.7308Z" fill="#3F9AF5"/>
<rect x="7.80078" y="12.4004" width="9.6" height="9.6" rx="4.8" fill="#FBFFFF"/>
<path d="M12.6706 19.8856C11.148 19.9006 9.91402 18.6609 9.92895 17.1474C9.90905 15.6389 11.143 14.3993 12.6557 14.4142C13.4568 14.4092 14.0837 14.6631 14.6311 15.1809L13.9295 15.8829C13.606 15.5294 13.1632 15.3751 12.6557 15.3751C11.6456 15.3601 10.9689 16.1567 10.9888 17.1524C10.9589 18.1382 11.6506 18.9497 12.6606 18.9297C13.198 18.9347 13.616 18.7655 13.9643 18.407L14.6659 19.109C14.1185 19.6168 13.4518 19.9055 12.6706 19.8956V19.8856Z" fill="#0B163E"/>
<path d="M16.358 20.1885C17.9652 18.1424 17.6915 15.2448 15.6962 13.5372C13.5368 11.6653 10.1284 12.1681 8.58089 14.5827C6.71 17.4553 8.38186 21.2888 11.7057 21.9061C13.4074 22.2696 15.2932 21.5576 16.363 20.1885H16.358ZM15.6863 19.387C14.9947 20.3678 13.8751 20.9851 12.6013 20.9851C9.87459 21 8.01365 18.0975 9.1531 15.6282C9.4417 15.0108 9.88952 14.4483 10.4717 14.0799C12.0241 12.9746 14.2881 13.343 15.4574 14.752C16.5919 16.0713 16.6814 18.0079 15.6863 19.387Z" fill="#3F9AF5"/>
<rect x="7.80078" y="12.4004" width="9.6" height="9.6" rx="4.8" stroke="#FBFFFF" stroke-width="2"/>
</svg>
